<svg height="256px" width="256px" version="1.1" id="Capa_1" xmlns="http://www.w3.org/2000/svg" xmlns:xlink="http://www.w3.org/1999/xlink" viewBox="0 0 308.974 308.974" xml:space="preserve" fill="#000000"><g id="SVGRepo_bgCarrier" stroke-width="0"></g><g id="SVGRepo_tracerCarrier" stroke-linecap="round" stroke-linejoin="round"></g><g id="SVGRepo_iconCarrier"> <g> <path style="fill:#750fdb;" d="M58.243,243.684c1.545,2.04,3.399,3.416,5.368,4.346c2.573,2.312,6.016,3.747,9.459,3.932 c63.131,3.35,126.741,1.534,189.921,0.071c5.885-0.136,11.716-4.025,13.114-9.981c12.673-54.102,29.023-110.234,32.846-165.81 c0.392-5.733-4.411-11.906-9.981-13.114c-33.146-7.163-94.819-20.146-113.938,18.308c-18.357,36.915-80.493,25.58-114.438,25.254 c-5.635-0.054-9.431,2.725-11.444,6.516c-1.246,1.92-2.078,4.248-2.154,7.082c-0.114,4.444-0.12,8.887-0.076,13.326 c-15.675,0.038-31.052-1.392-46.863,2.089c-6.962,1.534-11.748,9.959-9.497,16.725C12.142,187.253,36.416,214.905,58.243,243.684z M176.956,124.666c14.103-6.277,24.982-15.36,31.547-29.507c8.926-19.233,49.006-12.956,72.209-8.169 c-4.569,46.237-17.579,92.921-28.49,138.103c-54.924,1.294-110.13,2.562-165.032,0.288c0.674-30.415-2.763-60.765-3.095-91.191 C115.196,135.185,148.369,137.388,176.956,124.666z M57.814,160.651c0.696,13.75,1.545,27.489,1.991,41.239 c-10.16-13.206-19.782-26.858-26.896-41.69C41.186,159.971,49.481,160.537,57.814,160.651z"></path> </g> </g></svg>